<svg xmlns="http://www.w3.org/2000/svg" width="800" height="800" fill="#fff" viewBox="0 0 20 20"><path d="M19.957 10.028A9.937 9.937 0 1 1 10.02.09a9.937 9.937 0 0 1 9.937 9.937Zm-3.891-4.942a.4.4 0 0 0-.398-.396H6.915a.4.4 0 0 0-.397.398v2.231H4.391a.4.4 0 0 0-.398.397V14.9a.4.4 0 0 0 .398.398h8.752a.4.4 0 0 0 .397-.398V12.67h2.128a.4.4 0 0 0 .398-.398Zm-9.15 7.583h5.63v1.635h-7.56v-4.88h1.532v2.847a.4.4 0 0 0 .398.398Zm.595-5.874h7.56v4.88h-7.56Z" style="fill:#fff;stroke-width:1.25513"/></svg>